<svg id="Layer_1" data-name="Layer 1" xmlns="http://www.w3.org/2000/svg" viewBox="0 0 1196.94 1080"><defs><style>.cls-1{fill:#4573ff;}</style></defs><path class="cls-1" d="M770.45,668.39a42.8,42.8,0,1,1,42.8,42.8A42.82,42.82,0,0,1,770.45,668.39ZM214,625.58a42.81,42.81,0,1,0,42.81,42.81A42.82,42.82,0,0,0,214,625.58Zm813.26-256.81v321a150.08,150.08,0,0,1-85.61,135.34V903.8a107,107,0,1,1-214,0V839.6h-428v64.2a107,107,0,1,1-214,0V825.13A150.08,150.08,0,0,1,0,689.79v-321A42.84,42.84,0,0,1,42.8,326h46c28.68-57.23,58.94-108.68,90.57-153.84a195.68,195.68,0,0,1,115.14-78.5c47-11.17,123.27-24.44,219.11-24.44S685.7,82.5,732.7,93.63a195.86,195.86,0,0,1,115.14,78.5q47.51,67.8,90.57,153.84h46a42.84,42.84,0,0,1,42.8,42.8Zm-88.69-42.59-849.94,0M45.5,536.25c75.76-10.65,294.05-39.07,468.09-39.07s392.33,28.42,468.09,39.07C931.86,399.67,875.06,285.47,812.82,196.7a153.4,153.4,0,0,0-90-61.46C678,124.62,605.27,112,513.55,112s-164.41,12.67-209.27,23.29a153.43,153.43,0,0,0-90,61.46c-62.23,88.77-119,203-168.86,339.55ZM256.77,839.6h-107a147.88,147.88,0,0,1-21.4-1.54V903.8a64.21,64.21,0,1,0,128.41,0V839.6Zm642-1.54a153.66,153.66,0,0,1-21.4,1.54h-107v64.2a64.2,64.2,0,1,0,128.4,0Zm85.61-258.19c-65.06-9.33-292-39.89-470.83-39.89S107.82,570.54,42.76,579.87V689.79a107.12,107.12,0,0,0,107,107H877.46a107.12,107.12,0,0,0,107-107V579.87Z"/></svg>