<svg id="Layer_1" data-name="Layer 1" xmlns="http://www.w3.org/2000/svg" viewBox="0 0 1080 1080"><defs><style>.cls-1{fill:#4573ff;}</style></defs><path class="cls-1" d="M765.16,1031.26H314.84c-101.57,0-184.22-82.65-184.22-184.22V233c0-101.57,82.65-184.22,184.22-184.22H765.16c101.57,0,184.22,82.65,184.22,184.22V847C949.38,948.61,866.73,1031.26,765.16,1031.26ZM314.84,89.68c-79,0-143.29,64.27-143.29,143.28V847c0,79,64.28,143.28,143.29,143.28H765.16c79,0,143.29-64.27,143.29-143.28V233c0-79-64.28-143.28-143.29-143.28ZM785.63,273.9a20.48,20.48,0,0,0-20.47-20.47H519.53a20.47,20.47,0,1,0,0,40.94H765.16A20.48,20.48,0,0,0,785.63,273.9Zm0,245.63a20.48,20.48,0,0,0-20.47-20.47H519.53a20.47,20.47,0,1,0,0,40.94H765.16A20.48,20.48,0,0,0,785.63,519.53Zm0,245.63a20.48,20.48,0,0,0-20.47-20.47H519.53a20.47,20.47,0,0,0,0,40.94H765.16A20.48,20.48,0,0,0,785.63,765.16ZM396.72,335.31H314.84a20.48,20.48,0,0,1-20.47-20.47V233a20.48,20.48,0,0,1,20.47-20.47h81.88A20.47,20.47,0,0,1,417.18,233v81.88A20.47,20.47,0,0,1,396.72,335.31Zm-61.41-40.94h40.94V253.43H335.31Zm61.41,286.57H314.84a20.48,20.48,0,0,1-20.47-20.47V478.59a20.48,20.48,0,0,1,20.47-20.47h81.88a20.47,20.47,0,0,1,20.46,20.47v81.88A20.47,20.47,0,0,1,396.72,580.94ZM335.31,540h40.94V499.06H335.31Zm61.41,286.57H314.84a20.48,20.48,0,0,1-20.47-20.47V724.22a20.48,20.48,0,0,1,20.47-20.47h81.88a20.47,20.47,0,0,1,20.46,20.47V806.1A20.47,20.47,0,0,1,396.72,826.57Zm-61.41-40.94h40.94V744.69H335.31Z"/></svg>