<svg id="Layer_1" data-name="Layer 1" xmlns="http://www.w3.org/2000/svg" viewBox="0 0 1080 1080"><defs><style>.cls-1{fill:#4573ff;}</style></defs><path class="cls-1" d="M657.7,819.63l20,40H399.85A219.13,219.13,0,0,1,186.37,691.76l-85.45-351.5H142l83.13,342A179.33,179.33,0,0,0,399.85,819.63ZM871.58,979.42,731.77,699.79H399.61a59.77,59.77,0,0,1-58.29-46L314.12,540H619.55V500.05h-315L266.38,340.26H225.32l77.14,322.82a99.54,99.54,0,0,0,97.15,76.66H707.08l139.81,279.62H979.08V979.42ZM140.87,160.5a99.87,99.87,0,1,1,99.87,99.87A100,100,0,0,1,140.87,160.5Zm39.95,0a59.92,59.92,0,1,0,59.92-59.92A60,60,0,0,0,180.82,160.5Z"/></svg>