<svg id="Layer_1" data-name="Layer 1" xmlns="http://www.w3.org/2000/svg" viewBox="0 0 1080 1080"><defs><style>.cls-1{fill:#4573ff;}</style></defs><path class="cls-1" d="M930.11,909.46H150A102.76,102.76,0,0,1,47.34,807c-.08-46.22-.12-99.71,0-125.45V663.85l17.61-2.54c60.31-8.62,105.75-60.76,105.75-121.31S125.22,427.27,64.91,418.69l-17.57-2.5V398.41c-.16-34.4.17-125.33.17-125.33,0-56.48,46.06-102.54,102.63-102.54h780a102.77,102.77,0,0,1,102.63,102.63v143l-17.61,2.54C955,427.4,909.59,479.53,909.59,540S955,652.6,1015.13,661.31l17.61,2.54v143A102.77,102.77,0,0,1,930.11,909.46Zm-841.8-211c0,28.32,0,70.85.09,108.54A61.61,61.61,0,0,0,150,868.45H930.11a61.66,61.66,0,0,0,61.58-61.58V698.42C920.38,679.94,868.54,614.71,868.54,540s51.84-139.9,123.15-158.38V273.21a61.66,61.66,0,0,0-61.58-61.58h-780a61.66,61.66,0,0,0-61.58,61.58c0,.08-.25,67.81-.25,108.37C159.78,400,211.71,465.2,211.71,540S159.78,680.11,88.31,698.5Z"/></svg>